<svg width="1557" height="1557" viewBox="0 0 1557 1557" fill="none" xmlns="http://www.w3.org/2000/svg">
<path d="M627.657 410.756C634.934 410.115 642.542 410.683 649.521 412.906C657.387 415.382 664.398 420.016 669.756 426.284C680.263 438.683 687.193 456.385 694.589 470.839L733.872 547.739C742.377 527.268 754.126 508.304 768.667 491.573C811.462 442.276 874.604 416.513 938.877 412.521C1011.48 408.015 1093.68 429.544 1148.6 478.664C1191.55 517.082 1216.13 570.931 1221.56 627.885C1222.84 641.326 1220.02 657.46 1225.1 670.041C1228.07 677.389 1232.74 684.483 1236.65 691.381L1264.07 740.399C1269.92 750.757 1276.82 761.305 1281.28 772.315C1283.28 777.24 1284.6 782.326 1284.84 787.661C1285.44 799.778 1281.02 811.608 1272.63 820.363C1258.73 835.06 1240.99 836.877 1221.86 837.312C1222.14 845.203 1222.29 853.098 1222.32 860.994C1222.6 912.822 1215.2 964.081 1176.83 1002.49C1139.7 1039.65 1099.46 1041.58 1050.15 1041.52L990.624 1041.51C996.273 1051.02 1001.72 1060.13 1001.91 1071.56C1002.13 1082.1 998.029 1092.28 990.55 1099.72C984.248 1106 976.38 1109.87 967.73 1111.64C952.34 1114.78 928.585 1112.91 912.191 1112.88L815.564 1112.87C799.523 1112.67 783.349 1110.12 768.896 1102.85C757.234 1096.98 747.568 1088.36 740.086 1077.7C730.152 1063.55 722.725 1046.74 714.727 1031.37L670.252 945.469L639.877 887.362C635.084 878.141 628.882 868.314 625.633 858.464C599.585 907.196 574.948 956.831 549.431 1005.87C538.501 1026.87 528.107 1050.11 515.302 1069.94C501.816 1090.82 482.871 1104.84 458.477 1110.05C441.847 1113.59 424.687 1112.92 407.785 1112.92L358.2 1112.86C339.885 1112.85 320.1 1114.57 301.991 1112.12C294.382 1111.09 287.035 1108.63 280.645 1104.31C271.871 1098.44 265.888 1089.23 264.089 1078.83C262.379 1069.49 264.497 1060.24 268.354 1051.72C273.231 1040.94 279.398 1030.6 284.782 1020.06C300.864 988.659 317.204 957.391 333.799 926.26L453.464 697.673L550.682 511.488L576.234 462.549C581.495 452.417 586.416 441.3 592.957 431.938C601.697 419.432 612.778 413.371 627.657 410.756Z" fill="white"/>
<path d="M941.781 438.992C951.991 437.786 963.268 438.455 973.528 439.183C1016.46 442.234 1060.46 453.125 1098.01 474.592C1154.92 507.135 1188.62 563.588 1194.96 628.242C1196.5 643.975 1193.69 662.183 1199.95 676.877C1204.38 687.268 1210.39 697.233 1215.78 707.149L1243.06 756.998C1248.78 767.443 1256.06 778.214 1259.17 789.736C1251.13 824.62 1213.37 801.175 1199.77 814.521C1192.15 821.994 1195.23 843.938 1195.36 853.856C1195.92 899.397 1193.5 947.885 1159.53 982.345C1134.24 1008.01 1104.67 1014.38 1069.87 1014.47L975.458 1014.37L817.077 710.702L773.067 625.35C765.421 610.409 757.119 595.555 750.33 580.211C759.199 552.326 772.004 527.393 791.408 505.318C829.778 461.664 885.223 442.632 941.781 438.992Z" fill="#FEFEFE"/>
<path d="M1113.08 666.206C1119.08 666.43 1124.61 668.076 1129.6 671.444C1137.61 676.847 1142.71 685.853 1144.37 695.258C1146.2 705.698 1144.17 717.329 1138 726.032C1132.35 734.009 1125.02 737.418 1115.71 739.131C1108.45 739.06 1102.01 737.516 1096.12 733.087C1088.14 727.095 1083.33 717.567 1082.05 707.78C1080.69 697.483 1083.47 686.395 1090.02 678.256C1096.05 670.748 1103.75 667.395 1113.08 666.206Z" fill="#033758"/>
<path d="M630.953 436.568C633.974 436.424 636.798 436.507 639.717 437.4C645.302 439.108 649.099 442.953 652.161 447.774C658.497 457.749 663.385 469.212 668.75 479.769L704.535 550.506L830.212 793.056C795.487 792.28 760.614 792.876 725.872 792.794C703.093 792.74 679.76 791.43 657.057 792.913C652.33 793.22 647.265 793.827 642.767 795.373C635.627 797.829 628.674 802.042 623.75 807.809C613.586 819.716 603.102 844.262 595.469 858.848C571.842 903.639 548.446 948.551 525.281 993.584L502.846 1036.65C498.57 1044.82 494.507 1053.71 489.324 1061.34C485.986 1066.25 481.686 1070.22 477.181 1074.04C472.356 1077.55 467.369 1080.3 461.731 1082.28C455.468 1084.49 448.899 1085.55 442.291 1086C420.534 1087.49 398.156 1086.42 376.312 1086.44C354.041 1086.45 331.168 1087.5 308.975 1086.25C305.246 1086.04 300.559 1085.79 297.246 1084.02C292.502 1081.49 290.929 1076.85 289.404 1072.06C289.464 1071.84 289.526 1071.62 289.584 1071.4C293.345 1057.28 302.505 1043.21 309.261 1030.29L340.978 969.537L474.307 714.969L568.345 535.324L597.321 480C602.761 469.417 607.713 457.79 614.043 447.767C618.039 441.438 623.876 438.151 630.953 436.568Z" fill="#3294C7"/>
<path d="M655.903 819.84C686.208 818.774 716.815 819.707 747.149 819.729C779.315 819.753 811.776 818.895 843.902 820.042L942.432 1006.99C948.75 1019.04 972.036 1059.58 974.515 1069.12C975.35 1072.34 974.348 1076.75 972.492 1079.46C969.538 1083.77 965.048 1085.21 960.186 1086.29C930.02 1087.45 899.38 1086.44 869.165 1086.45C848.179 1086.46 824.216 1088.05 803.608 1085.7C794.526 1084.67 784.784 1082.42 776.981 1077.5C769.76 1072.96 764.317 1066.44 759.812 1059.3C751.224 1045.69 744.293 1030.51 736.837 1016.24L693.914 933.704L665.642 878.863C659.32 866.79 644.2 843.032 641.974 831.275C641.489 828.709 642.006 826.684 643.599 824.646C646.505 820.933 651.565 820.383 655.903 819.84Z" fill="#3294C7"/>
</svg>
